Coordinates
version=1
nRows=9
nColumns=24
inDegrees=yes

Units are S.I. units (second, meters, Newtons, ...)
Angles are in degrees.

endheader
time	pelvis_tilt	pelvis_list	pelvis_rotation	pelvis_tx	pelvis_ty	pelvis_tz	hip_flexion_r	hip_adduction_r	hip_rotation_r	knee_angle_r	ankle_angle_r	subtalar_angle_r	mtp_angle_r	hip_flexion_l	hip_adduction_l	hip_rotation_l	knee_angle_l	ankle_angle_l	subtalar_angle_l	mtp_angle_l	lumbar_extension	lumbar_bending	lumbar_rotation
      1.70500000	     -6.41504339	      4.30533582	    358.36407755	     -0.29146465	      1.38642312	     -1.04009577	     29.01227060	     -3.10109390	      4.12144316	    -19.52668326	     -1.21552257	     -4.96575403	     10.66083735	      3.83592280	      8.62889262	      5.20870698	     -8.42645563	      4.38574265	     -3.89834920	     15.06435350	     -8.55464945	      0.84240175	      7.23117718
      1.71000000	     -6.47324333	      4.39497068	    358.47000490	     -0.28655884	      1.38568261	     -1.03985976	     28.85730894	     -3.26478014	      4.40539656	    -17.58884232	     -1.73620737	     -5.10983168	     10.65731205	      3.55249005	      8.72572448	      5.33315472	     -8.37201731	      4.65178030	     -3.85301507	     14.97742533	     -8.50063907	      0.76721697	      7.12218052
      1.71500000	     -6.51702609	      4.50439289	    358.55311880	     -0.28168753	      1.38490976	     -1.03959574	     28.68114724	     -3.44818191	      4.75631545	    -15.64745326	     -2.31317329	     -5.29312856	     11.02556167	      3.26276944	      8.84127859	      5.40373384	     -8.33691148	      4.95993158	     -3.70148432	     14.74167774	     -8.47699452	      0.66848012	      7.04903052
      1.72000000	     -6.62975006	      4.61769713	    358.69395371	     -0.27673293	      1.38403359	     -1.03942916	     28.56338803	     -3.67385647	      5.03690418	    -13.74834159	     -2.72211263	     -5.38488407	     10.95745688	      3.04354380	      8.97000041	      5.60844264	     -8.30024524	      5.20411706	     -3.74137869	     14.69450859	     -8.35125341	      0.57670386	      6.93627232
      1.72500000	     -6.67749816	      4.73698152	    358.79376397	     -0.27179202	      1.38318633	     -1.03920338	     28.36399328	     -3.89695287	      5.40402308	    -11.84639098	     -3.20702796	     -5.57972384	     11.18400558	      2.74821474	      9.10005795	      5.73221756	     -8.25539570	      5.45703463	     -3.70458551	     14.49810223	     -8.31436191	      0.48442862	      6.83234611
      1.73000000	     -6.76951081	      4.87843113	    358.95107144	     -0.26684570	      1.38224599	     -1.03905388	     28.21641210	     -4.18003324	      5.68937165	    -10.01794183	     -3.59669344	     -5.69608774	     11.21035754	      2.51209631	      9.26190477	      5.96306623	     -8.23703515	      5.69955732	     -3.75450165	     14.38447619	     -8.22627448	      0.36427231	      6.68850571
      1.73500000	     -6.88263709	      5.01927067	    359.11605281	     -0.26182516	      1.38123996	     -1.03893288	     28.09515638	     -4.47546263	      5.91894836	     -8.26591971	     -3.88955320	     -5.73170474	     11.20406542	      2.29007736	      9.42348496	      6.21110897	     -8.21243399	      5.95839884	     -3.80919675	     14.30693558	     -8.09334509	      0.24068454	      6.60749982
      1.74000000	     -6.96235801	      5.17125545	    359.27072762	     -0.25683457	      1.38023679	     -1.03878943	     27.95127200	     -4.78154296	      6.17913234	     -6.59386300	     -4.18757366	     -5.82013966	     11.26158162	      2.03630410	      9.59747451	      6.46487376	     -8.19978000	      6.17980818	     -3.89642607	     14.11670099	     -8.02120369	      0.12829739	      6.44207392
      1.74500000	     -7.05026083	      5.32976667	    359.43612406	     -0.25180233	      1.37919739	     -1.03864838	     27.84047846	     -5.10036911	      6.33787052	     -5.04946272	     -4.39885345	     -5.81605158	     11.28491139	      1.78543204	      9.77686090	      6.72601388	     -8.18242773	      6.41419254	     -3.97206180	     13.95793692	     -7.92714872	     -0.00504859	      6.32195643
